<?xml version="1.0" encoding="utf-8"?>
<!-- Generator: Adobe Illustrator 28.3.0, SVG Export Plug-In . SVG Version: 6.00 Build 0)  -->
<svg version="1.1" id="Réteg_1" xmlns="http://www.w3.org/2000/svg" xmlns:xlink="http://www.w3.org/1999/xlink" x="0px" y="0px"
	 viewBox="0 0 3587.1 2420.5" style="enable-background:new 0 0 3587.1 2420.5;" xml:space="preserve">
<style type="text/css">
	.st0{fill:#F6CE2D;}
</style>
<g>
	<path class="st0" d="M1581,1780.4c-467.7,10.7-691,102.2-986.7,132c-259.1,26.2-505.9,1.7-584.7-243.5
		c-56.9-218.6,120.3-388,313.4-424.1c130.1-24.3,213.4-25.2,405.9-9.2c422.5,11.4,888.7,53.7,1316.6-61
		c210.5-67.7,447.8-110,600.6-283.5c143-119.9,103.3-365.6,227-335.7c188.4,44.9,457.8,651.7,327.7,799.2
		c-107.9,124.9-192.3-76.3-494.4-94.6c-457.4-45.6-805.7,88.5-1409.4,103.3c-446.1,9.9-770.6-18.8-929.3,58.5
		c-84.5,27-151.5,129.1-119.2,220c61.3,112.6,214.9,125.8,330,136.7c173,4.1,341.5-48.5,514.1-57.6c179.7-18.8,361-25.9,541.5-23.2
		c589.3-19.6,1189.1,41.1,1740,262.1c313.6,143.3,275,433.7-77,460.7c-346.5-35-609.6-335.4-956.9-387.9
		c-209.8-41.3-432.7-60.8-639.3,5.2c-61.7,20.3-124.1,40.5-181.2,71.9c-59.3,23.7-137.4,112.5-198.3,55.7
		c-148.7-220.2,33.2-199.7,200.8-185.8c116.6,0.3,231.8-35.1,347.9-46.9c268.2-35,545.6,3.2,798.7,96.7
		c203.1,68.1,662.3,375.4,738.4,167c42.5-133.6-245.9-206.9-585.3-312.4C2418.6,1766.7,1973.9,1785,1581,1780.4z"/>
	<path class="st0" d="M1903.2,750c-6.1,2.5-10.5,7.5-15.4,11.6c-14.4,12.2-29.4,23.8-45.2,34.1c-9.4,6.1-19.2,11.5-29.9,15.2
		c-5.6,2-11.4,4-17.3,2.8c-15-3-30.2-5.3-42.8-15.2c-6.5-5.1-13.2-10-19.9-14.8c-16.6-12.1-22.4-28.2-17.8-48.1
		c4.2-17.9,10.9-34.9,18.8-51.4c7.9-16.5,16.4-32.7,24.6-49.1c1-2.1,1.9-4.3,2.5-6.6c0.2-0.9-0.2-2.4-0.9-3c-0.6-0.6-2.2-0.8-3-0.4
		c-4.1,2.3-8.2,4.6-12.1,7.3c-106.6,71-220.2,127.9-341.4,169.5c-37.4,12.9-75.4,23.4-113.9,32.3c-7,1.6-13.5,4-20,6.7
		c-69.6,29.5-140.2,55.9-213.5,74.7c-25.7,6.6-51.5,12.9-77.6,17c-32.6,5.1-65.6,8-98.7,4.7c-28.6-2.8-55.8-9.7-78.5-28.8
		c-6.4-5.3-12.4-10.9-17.1-17.8c-11-16.5-13.3-35-10.7-54.1c2.4-18.2,8-35.6,15.3-52.5c15.9-37.2,37.5-71,61.2-103.4
		c37.6-51.5,78.8-100.1,123.9-145.3c27.5-27.6,52.9-57,78.2-86.6c19.1-22.4,39.7-43.7,60.8-64.3c40.1-39.2,82.6-75.8,127.1-110
		c106.7-81.9,220.7-151.7,345-203.8c49.6-20.8,100.2-38.6,152.3-51.8c41.8-10.6,84.1-18.3,127.4-18.4c32.6,0,64.9,3.9,95.7,15.3
		c43.2,16.1,69.3,47.2,78.7,92.5c6.4,31.3,3.5,62.3-3.8,93c-10.1,42.9-28.1,82.5-51.3,119.9c-2.4,3.9-6.2,7.2-6.1,12.4
		c3.8,3.1,7.9,1.3,11.7,0.7c21.5-3.5,42.9-7.9,64.6-10.7c27.5-3.6,54.8-8.3,82.1-12.8c8.7-1.4,17.6-0.8,26.3-3
		c4.9-1.2,8.7-3,11.9-6.9c16.6-20,33.3-39.8,50-59.8c10.2-12.2,20.1-24.7,30.7-36.7c37.9-42.9,75.7-85.9,114.3-128.3
		c14.7-16.1,30.2-31.5,47.1-45.4c8.8-7.2,18.3-12.8,29.2-16.2c12.3-3.8,24.5-8.2,36.9-11.8c7.9-2.3,15.7-4.4,24.2-0.8
		c4.1,1.8,9.3,0.8,14,1.3c6.4,0.6,11,3.6,13.5,9.8c3.8,9.5,6,19.1,4.4,29.3c-3.1,19.3-8.6,37.9-17.3,55.4
		c-11.3,22.8-24.3,44.6-37.6,66.2c-18.5,30.2-37.5,60.1-56.1,90.2c-3,4.8-7.4,9.1-7.8,15.6c5.6,2.1,10.8,1.6,15.9,1
		c43.9-5.4,87.7-11.4,131.6-16.5c37.4-4.3,75-7.7,112.5-11.5c43.4-4.4,86.7-9,130.1-13c32.9-3,65.8-5.2,98.7-7.9
		c39.4-3.2,78.7-6.6,118-9.7c22.9-1.8,45.9-3.2,68.8-5c38.2-3,76.3-6.2,114.5-9.2c17-1.3,34.1-2.4,51.2-3.7
		c40-2.9,79.9-5.6,119.9-8.6c64.1-4.8,128.1-9.8,192.1-14.7c2.3-0.2,4.7-0.5,7-0.1c2.7,0.5,6.3,0.8,5.8,5c-0.4,3.3-2.4,5.5-5.6,5.9
		c-7.6,1-15.3,1.2-22.9,2.4c-39.6,6.2-79.2,12.8-118.8,18.7c-37.9,5.7-75.9,10.4-113.8,16.1c-29.2,4.4-58.2,9.7-87.3,14.4
		c-20.4,3.3-40.9,5.9-61.2,9.2c-39.6,6.5-79.1,13.4-118.7,19.9c-25,4.1-50.2,7.6-75.2,11.6c-33.2,5.3-66.4,10.9-99.5,16.3
		c-16.3,2.7-32.6,5.2-48.9,7.8c-27.4,4.3-54.9,7.8-82.1,13c-21.5,4.1-43.2,5.9-64.7,9.5c-36.1,5.9-72.1,12.5-108.4,16.6
		c-22.3,2.5-44.2,7.3-66.6,8.9c-19.4,1.3-38.5,5.1-57.8,7.7c-23.9,3.2-47.9,6.3-71.8,9.5c-1.2,0.2-2.4,0.2-3.5,0.3
		c-20.5,2.5-20.5,2.5-31.5,20.4c-49.1,80.7-96.6,162.3-140,246.2c-33.9,65.6-65.6,132.2-91.6,201.3c-9.8,26-17.9,52.6-22.1,80.1
		c-1.5,10.1-5.3,19.3-8.1,28.9c-2.5,8.3-8.5,14.1-17.5,15.7c-1.7,0.3-3.8,1.2-5.2,0.6c-12.9-5.5-27.8-5.4-39.1-15.4
		c-7.5-6.6-16.2-11.8-24-18c-9.5-7.5-16-16.6-17.5-29.4c-3.2-26.1-13.6-49.8-26.3-72.5c-13.5-24.3-30.2-46.5-48-67.7
		C1906.5,752.1,1904.8,751.2,1903.2,750z M2178.6,455.6c-3.7,1-5.6,4.1-7.9,6.7c-30.1,34.8-60,69.6-90.3,104.3
		c-31.8,36.4-64.9,71.6-98.9,106.1c-1.2,1.3-2.4,2.6-3.5,4c-1.7,2.1-1.8,4.3-0.3,6.4c1.4,1.9,2.9,3.7,4.5,5.4
		c15,15.9,29.3,32.3,42.4,49.8c1.7,2.3,3.5,4.8,7.5,4.9c1.9-4,4.1-8.1,5.9-12.4c24.3-57,51.8-112.4,81-166.9
		C2138.5,527.6,2158.7,491.6,2178.6,455.6l0.2-0.6L2178.6,455.6z M952.4,586.4c-7.3,1-10.2,7.6-14.1,12.3
		c-26.4,31.7-52.2,63.8-75.3,98c-20.2,29.9-38.6,60.7-52.2,94.2c-7.8,19.3-13.2,39.1-12,60.2c1.1,20.3,10,36,27.3,46.8
		c14.8,9.3,31.2,13.7,48.5,14.8c40.9,2.6,81-1.7,120.9-11c51.1-11.9,100.9-27.6,150-45.9c2.6-1,5.8-1.5,4.1-5.7
		c-19.4-0.4-38.9-0.6-58.1-4.8c-30-6.6-59.7-13.9-86.1-30.6c-14.9-9.5-29-20.2-42.3-31.9c-15.4-13.5-26.6-30.3-32.9-49.5
		c-6.1-18.5-7.6-37.9-4.7-57.6c3.7-25.3,11.3-49.3,21.5-72.7C949.4,597.7,953.8,592.9,952.4,586.4c0.8-0.4,1.6-0.9,2.4-1.4
		c-0.6-0.5-1.1-0.9-1.7-1.4C952.9,584.6,952.7,585.5,952.4,586.4z M1135.6,784c5.1,0,9.3,0.1,13.4,0c46.7-1.7,92.7-8.5,138-19.8
		c44.7-11.1,88.3-25.6,130.7-43.5c25-10.5,50.5-20.1,73.6-34.6c11.5-7.2,23.1-14.3,34.6-21.5c52.2-32.4,102.9-66.9,151.8-104.1
		c3.3-2.5,6.6-5,9.7-7.7c2.7-2.2,3.2-4.9,0.8-7.6c-3.1-3.5-6.5-6.9-9.7-10.3c-12.5-13.5-23.5-28-32.3-44.1
		c-7.6-13.9-8-28.2-1.8-42.6c3.3-7.6,8-14.3,14.7-19.6c10.3-8.1,21.6-14.3,33.5-19.5c61.4-26.6,126-42.3,191.1-55.8
		c8.3-1.7,13.6-4.8,18.4-11.6c14.8-20.7,28.7-41.9,40.5-64.4c17.3-33.1,31.2-67.5,36-104.9c3-23.1,1.9-45.8-5.7-68.1
		c-8.8-25.8-26-41.6-53.3-45.4c-15.2-2.2-30.4-4.2-45.8-3.9c-42.7,0.9-84.3,8.8-125.3,20.3c-50.7,14.1-99.4,33.3-147,55.6
		c-108.4,50.9-209,114.3-302.9,188.5C1222,379.9,1150.7,446,1090.2,523c-26.3,33.5-50,68.6-67.9,107.5c-6.7,14.5-12.2,29.4-15,45.2
		c-5.4,30.4,3,55.8,26.7,76.2c14.7,12.7,32,19.7,50.1,25.5C1101.1,782.9,1119.1,781.9,1135.6,784z M2086.2,405.1
		c-30,5.2-55.5,9.8-81,14c-5.7,0.9-9.3,3.2-12.5,8.3c-31.7,51.8-63.8,103.4-95.6,155.2c-3,4.9-7.2,9.4-7.9,16
		c3.3,3.1,6.6,6.5,10.1,9.6c1.3,1.1,3,1.7,5.6,3.1C1966.4,545.4,2026.1,478,2086.2,405.1z M1784.5,470.4c-8.6,0.3-14.3,4.4-20.3,7.6
		c-2.4,1.3-2.2,3.8-0.4,5.9c1.2,1.4,2.8,2.2,4.6,1.2C1774.4,481.7,1779.1,476.7,1784.5,470.4z"/>
</g>
</svg>
